<svg id="SvgjsSvg1001" width="288" height="288" xmlns="http://www.w3.org/2000/svg" version="1.1" xmlns:xlink="http://www.w3.org/1999/xlink" xmlns:svgjs="http://svgjs.com/svgjs"><defs id="SvgjsDefs1002"></defs><g id="SvgjsG1008" transform="matrix(1,0,0,1,0,0)"><svg xmlns="http://www.w3.org/2000/svg" class="ionicon" viewBox="0 0 512 512" width="288" height="288"><path fill="none" stroke="#ffdb70" stroke-linecap="round" stroke-linejoin="round" stroke-width="32" d="M256 160c16-63.16 76.43-95.41 208-96a15.94 15.94 0 0116 16v288a16 16 0 01-16 16c-128 0-177.45 25.81-208 64-30.37-38-80-64-208-64-9.88 0-16-8.05-16-17.93V80a15.94 15.94 0 0116-16c131.57.59 192 32.84 208 96zM256 160v288" class="colorStrokecurrentColor svgStroke"></path></svg></g></svg>