<svg id="SvgjsSvg1027" width="288" height="288" xmlns="http://www.w3.org/2000/svg" version="1.1" xmlns:xlink="http://www.w3.org/1999/xlink" xmlns:svgjs="http://svgjs.com/svgjs"><defs id="SvgjsDefs1028"></defs><g id="SvgjsG1029"><svg xmlns="http://www.w3.org/2000/svg" class="ionicon" viewBox="0 0 512 512" width="288" height="288"><rect width="416" height="320" x="48" y="96" fill="none" stroke="#ffdb70" stroke-linejoin="round" stroke-width="32" rx="28" ry="28" class="colorStrokecurrentColor svgStroke"></rect><rect width="80" height="80" x="384" y="336" fill="none" stroke="#ffdb70" stroke-linejoin="round" stroke-width="32" rx="28" ry="28" class="colorStrokecurrentColor svgStroke"></rect><rect width="80" height="80" x="384" y="256" fill="none" stroke="#ffdb70" stroke-linejoin="round" stroke-width="32" rx="28" ry="28" class="colorStrokecurrentColor svgStroke"></rect><rect width="80" height="80" x="384" y="176" fill="none" stroke="#ffdb70" stroke-linejoin="round" stroke-width="32" rx="28" ry="28" class="colorStrokecurrentColor svgStroke"></rect><rect width="80" height="80" x="384" y="96" fill="none" stroke="#ffdb70" stroke-linejoin="round" stroke-width="32" rx="28" ry="28" class="colorStrokecurrentColor svgStroke"></rect><rect width="80" height="80" x="48" y="336" fill="none" stroke="#ffdb70" stroke-linejoin="round" stroke-width="32" rx="28" ry="28" class="colorStrokecurrentColor svgStroke"></rect><rect width="80" height="80" x="48" y="256" fill="none" stroke="#ffdb70" stroke-linejoin="round" stroke-width="32" rx="28" ry="28" class="colorStrokecurrentColor svgStroke"></rect><rect width="80" height="80" x="48" y="176" fill="none" stroke="#ffdb70" stroke-linejoin="round" stroke-width="32" rx="28" ry="28" class="colorStrokecurrentColor svgStroke"></rect><rect width="80" height="80" x="48" y="96" fill="none" stroke="#ffdb70" stroke-linejoin="round" stroke-width="32" rx="28" ry="28" class="colorStrokecurrentColor svgStroke"></rect><rect width="256" height="160" x="128" y="96" fill="none" stroke="#ffdb70" stroke-linejoin="round" stroke-width="32" rx="28" ry="28" class="colorStrokecurrentColor svgStroke"></rect><rect width="256" height="160" x="128" y="256" fill="none" stroke="#ffdb70" stroke-linejoin="round" stroke-width="32" rx="28" ry="28" class="colorStrokecurrentColor svgStroke"></rect></svg></g></svg>